<?xml version="1.0" standalone="no"?>
<!DOCTYPE svg PUBLIC "-//W3C//DTD SVG 20010904//EN"
 "http://www.w3.org/TR/2001/REC-SVG-20010904/DTD/svg10.dtd">
<svg version="1.0" xmlns="http://www.w3.org/2000/svg"
 width="300.000000pt" height="300.000000pt" viewBox="0 0 300.000000 300.000000"
 preserveAspectRatio="xMidYMid meet">
<metadata>
Created by potrace 1.10, written by Peter Selinger 2001-2011
</metadata>
<g transform="translate(0.000000,300.000000) scale(0.100000,-0.100000)"
fill="#292f7f" stroke="none">
<path d="M625 2665 c-33 -12 -74 -30 -91 -39 -34 -18 -110 -97 -125 -130 -5
-12 -21 -41 -36 -66 -23 -41 -26 -55 -27 -150 0 -83 4 -114 18 -144 10 -21 19
-48 21 -60 7 -50 81 -203 93 -191 6 5 32 -42 32 -58 0 -15 81 -120 87 -113 8
8 33 -14 33 -28 0 -6 -7 -2 -15 8 -8 11 -15 15 -15 9 0 -6 7 -17 16 -24 9 -7
34 -39 55 -70 21 -32 44 -61 50 -65 8 -4 9 -3 5 4 -4 7 -2 12 4 12 6 0 9 -8 6
-17 -3 -11 4 -30 17 -47 l23 -29 23 29 c80 103 110 148 105 155 -3 5 0 9 5 9
10 0 62 67 111 140 8 12 28 40 43 62 44 62 77 129 70 142 -3 6 -3 8 2 4 9 -9
39 52 62 127 18 56 23 242 8 253 -6 4 -12 16 -13 27 -13 70 -110 185 -187 221
-22 10 -42 19 -45 20 -3 0 -22 8 -44 17 -59 26 -213 22 -291 -8z m211 -201
c35 -5 110 -64 119 -94 4 -11 10 -18 14 -16 15 9 12 -148 -3 -177 -8 -15 -14
-33 -12 -40 1 -7 1 -8 -2 -4 -2 4 -16 -4 -30 -18 -95 -96 -263 -71 -328 49
-34 62 -38 152 -9 195 21 31 98 101 111 101 8 0 14 4 14 9 0 8 55 6 126 -5z"/>
<path d="M2650 2060 c-238 -16 -433 -107 -622 -288 -274 -264 -391 -646 -307
-1010 49 -214 168 -373 344 -460 125 -62 144 -65 558 -69 360 -4 377 -4 377
14 0 15 -92 166 -174 286 l-26 37 -229 0 c-127 0 -254 5 -283 11 -196 40 -376
206 -432 398 -87 299 83 625 374 716 45 14 107 19 331 22 l275 5 29 55 c15 30
52 95 82 145 29 50 53 102 53 117 l0 26 -123 1 c-67 1 -169 -2 -227 -6z"/>
<path d="M1828 1956 c-136 -71 -250 -160 -319 -253 -40 -54 -78 -93 -89 -93
-4 0 -19 26 -34 59 -34 74 -119 169 -184 204 l-50 27 -32 -52 c-18 -29 -55
-83 -82 -120 l-49 -67 35 -31 c54 -48 76 -103 76 -191 -1 -78 -17 -138 -45
-169 -52 -58 -164 -83 -356 -79 -76 2 -140 1 -142 -1 -3 -3 -7 -68 -9 -145
l-3 -140 45 -3 c24 -2 50 -8 58 -14 7 -6 37 -47 66 -92 30 -45 78 -115 107
-156 69 -98 179 -257 236 -342 l45 -68 179 0 179 0 -44 55 c-54 66 -92 129
-117 195 -10 27 -77 134 -149 236 -71 102 -130 190 -130 194 0 4 17 11 38 15
20 3 69 22 108 40 l71 34 6 59 c9 79 67 255 118 352 118 228 314 436 512 545
37 20 67 39 67 41 0 12 -35 -1 -112 -40z"/>
<path d="M265 1894 c-86 -45 -145 -100 -183 -173 -62 -116 -62 -118 -62 -837
l0 -654 173 2 172 3 2 650 3 650 23 45 c18 37 33 50 84 75 l61 31 -30 39 c-16
22 -53 77 -80 123 -38 61 -57 82 -72 82 -12 0 -52 -16 -91 -36z"/>
<path d="M1635 1240 c-3 -5 -1 -10 4 -10 6 0 11 5 11 10 0 6 -2 10 -4 10 -3 0
-8 -4 -11 -10z"/>
<path d="M1384 1098 c-4 -7 -3 -8 4 -4 12 7 16 16 8 16 -3 0 -8 -5 -12 -12z"/>
<path d="M1355 1090 c3 -5 8 -10 11 -10 3 0 2 5 -1 10 -3 6 -8 10 -11 10 -3 0
-2 -4 1 -10z"/>
<path d="M1317 1073 c-11 -10 -8 -43 3 -43 6 0 10 11 10 25 0 26 -2 29 -13 18z"/>
<path d="M1353 1025 c4 -44 -27 -60 -43 -22 -8 16 -9 11 -4 -23 9 -68 17 -77
43 -51 11 11 26 20 33 19 7 -2 13 12 15 32 2 21 0 30 -5 22 -9 -14 -23 -3 -35
28 -5 10 -6 8 -4 -5z"/>
<path d="M1540 1004 c0 -17 22 -14 28 4 2 7 -3 12 -12 12 -9 0 -16 -7 -16 -16z"/>
<path d="M1590 1000 c0 -7 3 -10 7 -7 3 4 3 10 0 14 -4 3 -7 0 -7 -7z"/>
<path d="M1438 969 c-28 -16 -11 -34 32 -34 22 0 40 3 40 8 0 4 -6 7 -14 7 -8
0 -16 7 -20 15 -6 17 -14 18 -38 4z"/>
<path d="M1514 935 c-8 -17 -8 -25 -1 -28 6 -2 10 -33 10 -78 0 -41 3 -66 6
-57 4 12 10 15 21 8 12 -8 12 -11 -3 -28 -13 -15 -15 -25 -7 -53 14 -48 14
-49 -25 -49 -38 0 -41 3 -66 90 -7 25 -18 48 -24 52 -5 4 -10 31 -10 59 0 56
-20 79 -30 36 -5 -18 -12 -23 -26 -20 -10 3 -19 0 -19 -6 0 -6 -4 -11 -10 -11
-5 0 -10 7 -10 17 0 19 -12 10 -18 -15 -10 -40 -13 -122 -5 -122 5 0 7 -23 5
-52 -2 -29 1 -54 7 -58 6 -3 13 -25 15 -48 6 -58 75 -193 139 -272 l53 -65
104 -3 105 -3 -71 73 c-69 71 -104 115 -104 130 0 5 22 8 50 8 46 0 51 -2 79
-42 30 -44 93 -108 145 -146 26 -20 41 -22 154 -22 l126 0 -75 37 c-88 43
-177 118 -220 184 -17 27 -35 49 -40 49 -5 0 -9 7 -9 16 0 8 -4 13 -9 9 -5 -3
-13 0 -17 6 -4 8 -3 9 4 5 17 -10 15 -2 -14 57 -28 57 -64 177 -64 218 0 14
-5 30 -11 36 -7 7 -15 29 -18 50 -6 37 -8 38 -51 41 -25 2 -47 7 -50 12 -3 5
-10 -2 -16 -15z m107 -57 c0 -7 2 -24 3 -37 3 -21 1 -22 -9 -8 -7 9 -16 13
-20 9 -5 -4 -5 -1 -1 6 4 7 2 19 -4 27 -10 12 -9 15 9 15 11 0 21 -6 22 -12z
m26 -75 c-4 -3 -7 0 -7 7 0 7 3 10 7 7 3 -4 3 -10 0 -14z m-320 -100 c-4 -3
-7 0 -7 7 0 7 3 10 7 7 3 -4 3 -10 0 -14z"/>
<path d="M1431 834 c0 -11 3 -14 6 -6 3 7 2 16 -1 19 -3 4 -6 -2 -5 -13z"/>
</g>
</svg>
